# Hierarchical Translation and Rotation (.htr) file
# Generated by EVaRT
[Header]
FileType htr
DataType HTRS
FileVersion 1
NumSegments 23
NumFrames 4
DataFrameRate 120
EulerRotationOrder ZYX
CalibrationUnits mm
RotationUnits Degrees
GlobalAxisofGravity Y
BoneLengthAxis Y
ScaleFactor 1
[SegmentNames&Hierarchy]
#CHILD            PARENT
DaveRoot          GLOBAL
Spine1            DaveRoot
Spine2            Spine1
Spine3            Spine2
Spine4            Spine3
Neck              Spine4
Head              Neck
LClavicle         Spine4
LUpperArm         LClavicle
LLowerArm         LUpperArm
LHand             LLowerArm
RClavicle         Spine4
RUpperArm         RClavicle
RLowerArm         RUpperArm
RHand             RLowerArm
RUpperLeg         DaveRoot
RLowerLeg         RUpperLeg
RFoot             RLowerLeg
RToes             RFoot
LUpperLeg         DaveRoot
LLowerLeg         LUpperLeg
LFoot             LLowerLeg
LToes             LFoot
[BasePosition]
#SegmentName      Tx   Ty   Tz   Rx   Ry   Rz   BoneLength
DaveRoot          -2055.569378	951.555595	-349.488296	-55.286396	87.050266	-65.121985	100.000000
Spine1            0.000000	100.000000	0.000000	-15.583766	0.109194	-2.004305	100.000000
Spine2            0.000000	100.000000	0.000000	5.873579	0.737526	-1.849210	100.000000
Spine3            0.000000	100.000000	0.000000	12.197367	0.936767	-1.756723	100.000000
Spine4            0.000000	100.000000	0.000000	13.310112	2.040835	-0.212222	100.000000
Neck              0.000000	100.000000	0.000000	12.619245	0.173111	5.676401	80.000000
Head              0.000000	80.000000	0.000000	-46.107413	-7.464542	12.340102	200.000000
LClavicle         0.000000	100.000000	0.000000	1.044460	-1.911847	-125.483710	200.000000
LUpperArm         0.000000	200.000000	0.000000	43.357802	45.679579	2.001361	300.000000
LLowerArm         0.000000	300.000000	0.000000	0.730208	2.175812	1.895763	200.000000
LHand             0.000000	200.000000	0.000000	7.864047	-1.768569	8.793625	120.000000
RClavicle         0.000000	100.000000	0.000000	-0.545713	-3.840301	119.120382	200.000000
RUpperArm         0.000000	200.000000	0.000000	38.253382	-38.646808	20.273438	300.000000
RLowerArm         0.000000	300.000000	0.000000	3.077531	-3.682026	-7.348670	200.000000
RHand             0.000000	200.000000	0.000000	24.943087	4.220171	-5.193807	120.000000
RUpperLeg         -115.911102	-10.000000	31.058285	22.464267	14.037388	-176.329742	530.000000
RLowerLeg         0.000000	530.000000	0.000000	-23.704548	0.479387	-2.520024	460.000000
RFoot             0.000000	460.000000	0.000000	90.327319	5.730808	-0.531790	130.000000
RToes             0.000000	130.000000	0.000000	18.726053	0.005479	-0.002881	100.000000
LUpperLeg         115.911102	-10.000000	31.058285	16.272232	9.077962	178.396881	530.000000
LLowerLeg         0.000000	530.000000	0.000000	-9.044305	-3.275937	3.046484	460.000000
LFoot             0.000000	460.000000	0.000000	80.193205	-12.160808	23.252942	130.000000
LToes             0.000000	130.000000	0.000000	33.283153	-0.000000	-0.000086	100.000000
#Beginning of Data.
[DaveRoot]
#Fr	Tx	Ty	Tz	Rx	Ry	Rz	SF
1	0.000000	0.000000	0.000000	0.000000	0.000000	0.000000	1.000000	
2	-1.016693	-4.934899	0.713413	-1.414007	-0.022605	0.420900	1.000000	
3	-1.093356	-5.350221	0.862631	-1.664309	0.032010	0.455496	1.000000	
4	-1.093356	-5.350221	0.862631	-1.664309	0.032010	0.455496	1.000000	
[Spine1]
#Fr	Tx	Ty	Tz	Rx	Ry	Rz	SF
1	0.000000	0.000000	0.000000	-0.000000	0.000000	-0.000000	1.000000	
2	0.000000	0.000000	0.000000	-0.216699	0.288873	-0.185223	1.000000	
3	0.000000	0.000000	0.000000	0.125660	0.179851	-0.220297	1.000000	
4	0.000000	0.000000	0.000000	0.125660	0.179851	-0.220297	1.000000	
[Spine2]
#Fr	Tx	Ty	Tz	Rx	Ry	Rz	SF
1	0.000000	0.000000	0.000000	-0.000000	0.000000	-0.000000	1.000000	
2	0.000000	0.000000	0.000000	-0.216699	0.288873	-0.185223	1.000000	
3	0.000000	0.000000	0.000000	0.125660	0.179851	-0.220297	1.000000	
4	0.000000	0.000000	0.000000	0.125660	0.179851	-0.220297	1.000000	
[Spine3]
#Fr	Tx	Ty	Tz	Rx	Ry	Rz	SF
1	0.000000	0.000000	0.000000	0.000000	0.000000	0.000000	1.000000	
2	0.000000	0.000000	0.000000	-0.216699	0.288873	-0.185223	1.000000	
3	0.000000	0.000000	0.000000	0.125660	0.179851	-0.220297	1.000000	
4	0.000000	0.000000	0.000000	0.125660	0.179851	-0.220297	1.000000	
[Spine4]
#Fr	Tx	Ty	Tz	Rx	Ry	Rz	SF
1	0.000000	0.000000	0.000000	0.000000	0.000000	0.000000	1.000000	
2	0.000000	0.000000	0.000000	-0.216699	0.288873	-0.185223	1.000000	
3	0.000000	0.000000	0.000000	0.125660	0.179851	-0.220297	1.000000	
4	0.000000	0.000000	0.000000	0.125660	0.179851	-0.220297	1.000000	
[Neck]
#Fr	Tx	Ty	Tz	Rx	Ry	Rz	SF
1	0.000000	0.000000	0.000000	-0.000000	-0.000000	-0.000000	1.000000	
2	0.000000	0.000000	0.000000	3.876702	-1.074517	0.086786	1.000000	
3	0.000000	0.000000	0.000000	2.731822	-0.798308	0.069974	1.000000	
4	0.000000	0.000000	0.000000	2.731822	-0.798308	0.069974	1.000000	
[Head]
#Fr	Tx	Ty	Tz	Rx	Ry	Rz	SF
1	0.000000	0.000000	0.000000	-0.000000	0.000000	0.000000	1.000000	
2	0.000000	0.000000	0.000000	3.876702	-1.074517	0.086786	1.000000	
3	0.000000	0.000000	0.000000	2.731822	-0.798308	0.069974	1.000000	
4	0.000000	0.000000	0.000000	2.731822	-0.798308	0.069974	1.000000	
[LClavicle]
#Fr	Tx	Ty	Tz	Rx	Ry	Rz	SF
1	0.000000	0.000000	0.000000	-0.000000	0.000000	-0.000000	1.000000	
2	0.000000	0.000000	0.000000	9.670012	1.861303	10.222466	1.000000	
3	0.000000	0.000000	0.000000	6.395031	1.184997	10.560150	1.000000	
4	0.000000	0.000000	0.000000	6.395031	1.184997	10.560150	1.000000	
[LUpperArm]
#Fr	Tx	Ty	Tz	Rx	Ry	Rz	SF
1	0.000000	0.000000	0.000000	0.000000	0.000000	-0.000000	1.000000	
2	0.000000	0.000000	0.000000	3.595674	-13.231806	-18.753745	1.000000	
3	0.000000	0.000000	0.000000	9.510593	-8.355442	-15.496467	1.000000	
4	0.000000	0.000000	0.000000	9.510593	-8.355442	-15.496467	1.000000	
[LLowerArm]
#Fr	Tx	Ty	Tz	Rx	Ry	Rz	SF
1	0.000000	0.000000	0.000000	-0.000000	-0.000000	-0.000000	1.000000	
2	0.000000	0.000000	0.000000	11.866843	-0.000000	-0.000000	1.000000	
3	0.000000	0.000000	0.000000	1.866156	-0.000000	-0.000000	1.000000	
4	0.000000	0.000000	0.000000	1.866156	-0.000000	-0.000000	1.000000	
[LHand]
#Fr	Tx	Ty	Tz	Rx	Ry	Rz	SF
1	0.000000	0.000000	0.000000	0.000000	0.000000	0.000000	1.000000	
2	0.000000	0.000000	0.000000	-2.493721	0.000000	0.000000	1.000000	
3	0.000000	0.000000	0.000000	3.997251	0.000000	0.000000	1.000000	
4	0.000000	0.000000	0.000000	3.997251	0.000000	0.000000	1.000000	
[RClavicle]
#Fr	Tx	Ty	Tz	Rx	Ry	Rz	SF
1	0.000000	0.000000	0.000000	0.000000	0.000000	0.000000	1.000000	
2	0.000000	0.000000	0.000000	4.226302	-0.581585	-3.475196	1.000000	
3	0.000000	0.000000	0.000000	3.437281	-0.485485	-3.266615	1.000000	
4	0.000000	0.000000	0.000000	3.437281	-0.485485	-3.266615	1.000000	
[RUpperArm]
#Fr	Tx	Ty	Tz	Rx	Ry	Rz	SF
1	0.000000	0.000000	0.000000	0.000000	-0.000000	0.000000	1.000000	
2	0.000000	0.000000	0.000000	-2.998240	18.077368	7.441121	1.000000	
3	0.000000	0.000000	0.000000	-1.994717	18.343346	6.405813	1.000000	
4	0.000000	0.000000	0.000000	-1.994717	18.343346	6.405813	1.000000	
[RLowerArm]
#Fr	Tx	Ty	Tz	Rx	Ry	Rz	SF
1	0.000000	0.000000	0.000000	-0.000000	-0.000000	-0.000000	1.000000	
2	0.000000	0.000000	0.000000	11.974396	-0.000000	-0.000000	1.000000	
3	0.000000	0.000000	0.000000	13.245421	-0.000000	-0.000000	1.000000	
4	0.000000	0.000000	0.000000	13.245421	-0.000000	-0.000000	1.000000	
[RHand]
#Fr	Tx	Ty	Tz	Rx	Ry	Rz	SF
1	0.000000	0.000000	0.000000	-0.000000	0.000000	0.000000	1.000000	
2	0.000000	0.000000	0.000000	-19.647841	-4.623366	3.775304	1.000000	
3	0.000000	0.000000	0.000000	-21.601587	-4.647506	4.756591	1.000000	
4	0.000000	0.000000	0.000000	-21.601587	-4.647506	4.756591	1.000000	
[RUpperLeg]
#Fr	Tx	Ty	Tz	Rx	Ry	Rz	SF
1	0.000000	0.000000	0.000000	0.000000	0.000000	-0.000000	1.000000	
2	0.000000	0.000000	0.000000	-0.479832	-0.210153	-0.727264	1.000000	
3	0.000000	0.000000	0.000000	-0.668303	-0.200875	-0.834693	1.000000	
4	0.000000	0.000000	0.000000	-0.668303	-0.200875	-0.834693	1.000000	
[RLowerLeg]
#Fr	Tx	Ty	Tz	Rx	Ry	Rz	SF
1	0.000000	0.000000	0.000000	0.000000	0.000000	0.000000	1.000000	
2	0.000000	0.000000	0.000000	-1.629420	0.000000	0.000000	1.000000	
3	0.000000	0.000000	0.000000	-1.740349	0.000000	0.000000	1.000000	
4	0.000000	0.000000	0.000000	-1.740349	0.000000	0.000000	1.000000	
[RFoot]
#Fr	Tx	Ty	Tz	Rx	Ry	Rz	SF
1	0.000000	0.000000	0.000000	0.000000	-0.000000	0.000000	1.000000	
2	0.000000	0.000000	0.000000	1.611944	0.706238	-0.000605	1.000000	
3	0.000000	0.000000	0.000000	1.743376	0.769226	-0.003933	1.000000	
4	0.000000	0.000000	0.000000	1.743376	0.769226	-0.003933	1.000000	
[RToes]
#Fr	Tx	Ty	Tz	Rx	Ry	Rz	SF
1	0.000000	0.000000	0.000000	-0.000000	0.000000	0.000000	1.000000	
2	0.000000	0.000000	0.000000	-0.759786	0.000000	0.000000	1.000000	
3	0.000000	0.000000	0.000000	-0.825605	-0.000000	0.000000	1.000000	
4	0.000000	0.000000	0.000000	-0.825605	-0.000000	0.000000	1.000000	
[LUpperLeg]
#Fr	Tx	Ty	Tz	Rx	Ry	Rz	SF
1	0.000000	0.000000	0.000000	0.000000	-0.000000	0.000000	1.000000	
2	0.000000	0.000000	0.000000	-0.642621	-0.980257	-0.479413	1.000000	
3	0.000000	0.000000	0.000000	-0.849989	-1.006563	-0.545369	1.000000	
4	0.000000	0.000000	0.000000	-0.849989	-1.006563	-0.545369	1.000000	
[LLowerLeg]
#Fr	Tx	Ty	Tz	Rx	Ry	Rz	SF
1	0.000000	0.000000	0.000000	-0.000000	0.000000	-0.000000	1.000000	
2	0.000000	0.000000	0.000000	-1.233887	0.000000	-0.000000	1.000000	
3	0.000000	0.000000	0.000000	-1.288148	0.000000	-0.000000	1.000000	
4	0.000000	0.000000	0.000000	-1.288148	0.000000	-0.000000	1.000000	
[LFoot]
#Fr	Tx	Ty	Tz	Rx	Ry	Rz	SF
1	0.000000	0.000000	0.000000	0.000000	0.000000	0.000000	1.000000	
2	0.000000	0.000000	0.000000	1.077584	1.791623	0.040075	1.000000	
3	0.000000	0.000000	0.000000	1.087072	1.998931	0.069449	1.000000	
4	0.000000	0.000000	0.000000	1.087072	1.998931	0.069449	1.000000	
[LToes]
#Fr	Tx	Ty	Tz	Rx	Ry	Rz	SF
1	0.000000	0.000000	0.000000	0.000000	-0.000000	0.000000	1.000000	
2	0.000000	0.000000	0.000000	1.396594	-0.000000	0.000000	1.000000	
3	0.000000	0.000000	0.000000	1.634186	-0.000000	0.000000	1.000000	
4	0.000000	0.000000	0.000000	1.634759	-0.000000	0.000000	1.000000	
